<?xml version="1.0" standalone="no"?>
<!DOCTYPE svg PUBLIC "-//W3C//DTD SVG 20010904//EN"
 "http://www.w3.org/TR/2001/REC-SVG-20010904/DTD/svg10.dtd">
<svg version="1.0" xmlns="http://www.w3.org/2000/svg"
 width="894.000000pt" height="279.000000pt" viewBox="0 0 894.000000 279.000000"
 preserveAspectRatio="xMidYMid meet">

<g transform="translate(0.000000,279.000000) scale(0.100000,-0.100000)"
fill="#000000" stroke="none">
<path d="M1507 2548 c-81 -22 -146 -42 -145 -44 2 -1 52 2 112 7 177 15 394
-9 521 -57 l40 -16 -40 42 c-22 23 -69 55 -105 73 -55 27 -77 32 -150 34 -73
2 -105 -3 -233 -39z"/>
<path d="M1040 2421 c-135 -37 -263 -77 -286 -89 -57 -29 -126 -99 -153 -154
-21 -43 -230 -800 -252 -913 -15 -75 4 -169 49 -245 33 -56 211 -240 232 -240
4 0 -39 82 -96 182 -57 100 -108 197 -114 217 -14 51 -12 160 4 213 11 38 175
330 422 753 29 50 67 104 86 122 47 45 156 99 216 108 48 6 51 8 54 38 3 28 9
34 58 54 88 36 41 26 -220 -46z"/>
<path d="M2222 2273 c28 -37 59 -87 69 -111 21 -49 94 -280 104 -329 4 -18 11
-33 16 -33 14 0 11 -26 -6 -40 -23 -19 -18 -46 15 -83 38 -44 78 -129 86 -187
4 -25 15 -56 25 -69 28 -35 23 -67 -15 -106 -41 -40 -53 -84 -35 -127 12 -29
11 -33 -13 -53 -22 -19 -24 -24 -12 -40 22 -30 17 -54 -18 -85 -31 -29 -32
-31 -19 -67 21 -57 17 -110 -9 -138 -36 -38 -81 -48 -179 -41 -72 6 -100 4
-166 -15 -44 -12 -91 -27 -105 -34 -37 -19 -91 -118 -130 -236 -44 -135 -47
-138 -181 -153 -25 -3 -106 -22 -180 -42 -163 -44 -222 -43 -325 5 -57 27 -94
58 -251 213 -100 100 -183 178 -183 173 0 -6 39 -79 88 -164 123 -219 193
-283 342 -311 70 -13 870 -13 940 0 136 26 213 88 306 250 33 58 129 224 214
370 182 314 198 348 206 427 9 83 -9 152 -65 253 -41 72 -49 96 -54 156 -9
114 -39 168 -170 302 -75 77 -125 139 -147 181 -41 77 -105 148 -159 179 l-40
22 51 -67z"/>
</g>
</svg>
