<?xml version="1.0" standalone="no"?>
<!DOCTYPE svg PUBLIC "-//W3C//DTD SVG 20010904//EN"
 "http://www.w3.org/TR/2001/REC-SVG-20010904/DTD/svg10.dtd">
<svg version="1.0" xmlns="http://www.w3.org/2000/svg"
 width="894.000000pt" height="279.000000pt" viewBox="0 0 894.000000 279.000000"
 preserveAspectRatio="xMidYMid meet">

<g transform="translate(0.000000,279.000000) scale(0.100000,-0.100000)"
fill="#000000" stroke="none">
<path d="M1550 2556 c-69 -18 -141 -38 -160 -44 l-35 -11 45 4 c145 14 197 14
308 5 131 -11 232 -32 297 -61 l40 -18 -55 51 c-120 112 -231 131 -440 74z"/>
<path d="M1020 2414 c-129 -36 -253 -76 -276 -89 -49 -29 -116 -100 -142 -152
-11 -21 -54 -168 -97 -328 -42 -159 -83 -310 -90 -335 -50 -162 -67 -256 -62
-332 7 -112 40 -167 184 -308 83 -83 109 -104 93 -77 -91 154 -202 358 -210
387 -14 50 -12 159 4 212 11 38 175 330 422 753 29 50 67 104 86 122 47 45
156 99 217 108 48 7 51 8 51 36 0 25 6 33 43 49 68 31 26 23 -223 -46z"/>
<path d="M3545 2338 c-4 -13 -53 -131 -110 -263 -56 -132 -148 -348 -205 -480
-56 -132 -108 -253 -116 -269 -8 -16 -14 -31 -14 -33 0 -1 35 -3 79 -3 l78 0
26 58 c14 31 33 77 43 102 29 75 14 71 247 68 l210 -3 47 -110 46 -110 77 -3
c42 -2 77 1 77 6 0 7 -257 613 -440 1040 -5 12 -16 22 -24 22 -8 0 -18 -10
-21 -22z m52 -365 c12 -32 45 -114 73 -182 28 -68 49 -125 47 -128 -2 -2 -71
-2 -153 -1 l-150 3 75 183 c40 100 77 182 80 182 4 0 17 -26 28 -57z"/>
<path d="M6450 2294 c-16 -37 -30 -68 -30 -70 0 -1 -88 -208 -195 -458 -107
-251 -195 -461 -195 -467 0 -6 29 -9 77 -7 l77 3 24 60 c13 33 34 84 47 113
l24 52 211 0 211 0 24 -52 c13 -29 34 -80 47 -113 l24 -60 77 -3 c42 -2 77 1
77 6 0 27 -444 1055 -458 1060 -6 2 -25 -26 -42 -64z m111 -427 c37 -89 69
-172 73 -184 l7 -23 -150 0 c-83 0 -151 3 -151 8 0 12 145 362 150 362 3 0 35
-73 71 -163z"/>
<path d="M4920 2324 c0 -46 -40 -737 -50 -863 -15 -190 -23 -171 69 -171 l78
0 6 68 c4 37 14 173 23 302 8 129 17 237 19 238 3 4 164 -238 270 -405 22 -35
43 -63 46 -63 4 0 35 44 70 98 173 266 241 367 248 370 4 1 16 -134 26 -300
l20 -303 78 -3 77 -3 0 48 c0 26 -7 161 -15 298 -8 138 -20 336 -26 440 -14
248 -15 265 -22 271 -6 6 -35 -36 -271 -388 -99 -148 -182 -268 -185 -268 -3
0 -104 149 -225 330 -120 182 -223 330 -227 330 -5 0 -9 -11 -9 -26z"/>
<path d="M7391 2335 c-145 -33 -261 -121 -325 -247 -37 -75 -66 -193 -66 -273
0 -80 29 -198 66 -273 43 -85 130 -172 209 -208 160 -75 400 -68 566 15 l54
27 3 232 2 232 -190 0 -190 0 0 -70 0 -70 110 0 111 0 -3 -122 -3 -122 -45
-14 c-58 -18 -223 -21 -277 -4 -98 29 -187 122 -218 225 -47 156 -20 323 70
433 71 86 226 133 352 106 53 -12 143 -50 179 -77 22 -16 25 -13 81 107 5 11
-83 59 -156 85 -85 31 -237 39 -330 18z"/>
<path d="M2193 2310 c72 -91 98 -141 142 -274 25 -76 50 -160 56 -187 6 -27
15 -49 20 -49 14 0 11 -26 -6 -40 -23 -19 -18 -46 15 -83 38 -44 78 -129 86
-187 4 -25 15 -56 25 -69 28 -35 23 -67 -15 -106 -41 -40 -53 -84 -35 -127 12
-29 11 -33 -13 -53 -22 -19 -24 -24 -12 -40 22 -30 17 -54 -18 -85 -31 -29
-32 -31 -19 -67 21 -57 17 -110 -9 -138 -36 -38 -81 -48 -179 -41 -72 6 -100
4 -166 -15 -44 -12 -91 -27 -105 -34 -37 -19 -91 -118 -130 -236 -44 -135 -47
-138 -181 -153 -25 -3 -106 -22 -180 -42 -163 -44 -222 -43 -325 5 -58 27 -95
59 -257 219 -214 210 -210 213 -57 -48 79 -132 130 -189 209 -228 l56 -27 515
0 515 0 56 27 c79 39 131 96 208 228 224 383 387 669 400 705 18 50 19 177 2
228 -7 21 -33 73 -57 115 -31 55 -44 88 -44 117 -1 120 -44 202 -174 335 -69
70 -120 133 -154 190 -54 90 -92 132 -157 171 l-40 23 28 -34z"/>
<path d="M4185 2328 c-3 -7 -4 -242 -3 -523 l3 -510 78 -3 77 -3 0 526 0 525
-75 0 c-51 0 -77 -4 -80 -12z"/>
<path d="M8140 1815 l0 -525 303 2 302 3 3 73 3 72 -231 0 -231 0 3 158 3 157
203 3 202 2 0 70 0 70 -205 0 -205 0 0 145 0 145 225 0 225 0 0 75 0 75 -300
0 -300 0 0 -525z"/>
<path d="M3682 845 c-18 -8 -37 -26 -42 -40 -17 -45 -2 -73 58 -108 65 -38 82
-59 66 -84 -12 -19 -83 -24 -115 -9 -20 9 -35 -22 -19 -38 18 -18 127 -20 154
-3 58 38 40 111 -37 153 -29 15 -55 32 -59 38 -28 41 18 76 73 57 25 -9 34 -8
41 1 13 22 9 27 -29 37 -47 14 -51 13 -91 -4z"/>
<path d="M4280 859 c0 -2 -29 -72 -65 -154 -36 -83 -65 -151 -65 -152 0 -2 10
-3 23 -3 17 0 26 9 36 35 l13 36 61 -3 c59 -3 63 -4 76 -35 10 -23 21 -33 37
-33 21 0 19 7 -42 152 -58 137 -74 170 -74 157z m43 -201 c-6 -11 -83 -10 -83
1 0 5 10 30 22 57 l21 49 23 -50 c12 -27 20 -53 17 -57z"/>
<path d="M4835 849 c-38 -11 -55 -34 -55 -75 0 -36 33 -70 89 -94 35 -14 50
-52 31 -75 -14 -17 -57 -19 -96 -5 -26 10 -43 2 -44 -21 0 -13 54 -29 99 -29
63 0 101 28 101 73 0 43 -10 56 -71 92 -70 41 -81 60 -50 86 18 14 32 18 50
13 44 -11 55 -10 59 8 2 12 -7 20 -35 27 -43 12 -38 12 -78 0z"/>
<path d="M5881 850 c-120 -28 -145 -215 -38 -280 53 -33 177 -22 177 14 0 20
-19 31 -33 17 -6 -6 -32 -11 -58 -11 -56 0 -94 30 -104 84 -19 100 59 170 148
133 36 -16 47 -13 47 9 0 28 -81 48 -139 34z"/>
<path d="M7072 833 c-6 -15 -35 -85 -65 -155 -53 -123 -55 -128 -33 -128 16 0
27 10 39 35 l17 36 62 -3 c61 -3 63 -4 72 -35 7 -26 14 -33 34 -33 15 0 22 5
19 13 -32 79 -122 284 -127 290 -4 5 -12 -4 -18 -20z m38 -119 c11 -26 20 -50
20 -55 0 -10 -73 -12 -82 -3 -6 5 31 104 38 104 2 0 12 -21 24 -46z"/>
<path d="M7817 846 c-48 -18 -62 -29 -81 -70 -32 -68 -14 -151 43 -199 27 -22
42 -27 89 -27 105 0 159 60 150 168 -5 57 -29 100 -69 119 -41 20 -92 23 -132
9z m101 -40 c65 -34 76 -134 20 -193 -33 -35 -100 -32 -139 6 -24 25 -29 38
-29 79 0 92 74 146 148 108z"/>
<path d="M3210 844 c0 -12 124 -294 129 -294 4 0 101 218 129 291 2 5 -7 9
-21 9 -21 0 -28 -11 -63 -100 -21 -55 -42 -100 -45 -100 -3 0 -24 45 -45 100
-33 86 -42 100 -61 100 -13 0 -23 -2 -23 -6z"/>
<path d="M3520 700 c0 -143 1 -150 20 -150 19 0 20 7 20 150 0 143 -1 150 -20
150 -19 0 -20 -7 -20 -150z"/>
<path d="M3880 734 l0 -116 34 -34 c30 -30 40 -34 86 -34 46 0 56 4 86 34 l34
34 0 116 c0 108 -1 116 -19 116 -18 0 -20 -10 -23 -109 -4 -128 -16 -151 -78
-151 -61 0 -70 19 -70 148 l0 112 -25 0 -25 0 0 -116z"/>
<path d="M4460 700 l0 -150 90 0 c83 0 90 1 90 20 0 18 -7 20 -65 20 l-65 0 0
130 0 130 -25 0 -25 0 0 -150z"/>
<path d="M5020 700 l0 -150 90 0 c83 0 90 1 90 20 0 18 -7 20 -65 20 l-65 0 0
50 0 50 60 0 c47 0 60 3 60 15 0 12 -13 15 -60 15 l-60 0 0 45 0 45 65 0 c58
0 65 2 65 20 0 19 -7 20 -90 20 l-90 0 0 -150z"/>
<path d="M5275 713 c-31 -76 -60 -144 -62 -150 -3 -8 3 -13 16 -13 14 0 25 11
35 35 15 35 16 35 76 35 59 0 61 -1 77 -35 10 -21 24 -35 35 -35 10 0 18 3 18
6 0 14 -124 294 -130 294 -4 0 -33 -62 -65 -137z m89 0 c22 -63 22 -63 -24
-63 -22 0 -40 3 -40 8 0 16 34 102 41 102 4 0 14 -21 23 -47z"/>
<path d="M5520 700 l0 -150 25 0 c23 0 25 3 25 50 0 50 0 50 33 50 28 0 35 -6
60 -50 22 -39 34 -50 53 -50 l26 0 -23 38 c-13 20 -27 45 -33 54 -8 13 -5 22
8 37 10 11 21 40 23 65 5 40 2 48 -25 76 -28 28 -36 30 -101 30 l-71 0 0 -150z
m145 86 c31 -47 -5 -96 -70 -96 -24 0 -25 3 -25 60 l0 60 40 0 c31 0 43 -5 55
-24z"/>
<path d="M6090 700 l0 -150 25 0 c24 0 25 2 25 70 l0 71 73 -3 72 -3 3 -67 c3
-60 5 -68 22 -68 19 0 20 8 20 150 0 142 -1 150 -20 150 -16 0 -19 -8 -22 -62
l-3 -63 -72 -3 -73 -3 0 66 c0 63 -1 65 -25 65 l-25 0 0 -150z"/>
<path d="M6490 701 l0 -151 25 0 c23 0 25 4 25 45 l0 45 46 0 c37 0 51 5 75
29 24 25 29 38 29 79 0 79 -20 96 -119 100 l-81 4 0 -151z m146 84 c31 -47 -3
-105 -62 -105 l-34 0 0 65 0 65 40 0 c31 0 43 -5 56 -25z"/>
<path d="M6750 700 l0 -150 90 0 c83 0 90 1 90 20 0 18 -7 20 -65 20 l-65 0 0
130 0 130 -25 0 -25 0 0 -150z"/>
<path d="M7210 830 c0 -17 7 -20 45 -20 l45 0 0 -130 0 -130 25 0 25 0 0 130
0 130 45 0 c38 0 45 3 45 20 0 19 -7 20 -115 20 -108 0 -115 -1 -115 -20z"/>
<path d="M7490 700 l0 -150 25 0 c24 0 25 2 25 65 l0 65 55 0 c42 0 55 3 55
15 0 12 -13 15 -55 15 l-55 0 0 50 0 50 65 0 c58 0 65 2 65 20 0 19 -7 20 -90
20 l-90 0 0 -150z"/>
<path d="M8090 700 c0 -143 1 -150 20 -150 17 0 20 7 20 50 l0 50 35 0 c31 0
38 -5 66 -50 23 -38 37 -50 55 -50 28 0 28 0 -19 69 -25 37 -27 45 -15 52 24
14 41 65 34 103 -10 55 -46 76 -127 76 l-69 0 0 -150z m138 98 c7 -7 12 -27
12 -45 0 -39 -34 -66 -77 -61 -27 3 -28 6 -31 61 l-3 57 44 0 c23 0 48 -5 55
-12z"/>
<path d="M8366 763 c-4 -49 -9 -116 -12 -150 -6 -62 -5 -63 20 -63 25 0 26 3
27 58 1 31 4 70 8 87 6 29 6 28 50 -39 l44 -68 41 66 c23 36 44 65 49 66 4 0
7 -15 7 -32 0 -18 3 -57 6 -85 6 -44 10 -53 27 -53 19 0 20 4 13 147 -7 133
-11 165 -19 152 -43 -68 -121 -179 -125 -179 -4 0 -33 41 -66 90 -32 50 -60
90 -61 90 -2 0 -6 -39 -9 -87z"/>
</g>
</svg>
