<svg stroke="currentColor" fill="currentColor" stroke-width="0" viewBox="0 0 24 24" xmlns="http://www.w3.org/2000/svg"
    data-darkreader-inline-fill="" data-darkreader-inline-stroke=""
    style="--darkreader-inline-fill:currentColor; --darkreader-inline-stroke:currentColor;">
    <g>
        <path fill="none" d="M0 0h24v24H0z"></path>
        <path
            d="M11.4588 11.3281H9.59233C9.55824 11.0866 9.48864 10.8722 9.38352 10.6847C9.27841 10.4943 9.14347 10.3324 8.97869 10.1989C8.81392 10.0653 8.62358 9.96307 8.40767 9.89205C8.1946 9.82102 7.96307 9.78551 7.71307 9.78551C7.26136 9.78551 6.8679 9.89773 6.53267 10.1222C6.19744 10.3437 5.9375 10.6676 5.75284 11.0938C5.56818 11.517 5.47585 12.0312 5.47585 12.6364C5.47585 13.2585 5.56818 13.7812 5.75284 14.2045C5.94034 14.6278 6.2017 14.9474 6.53693 15.1634C6.87216 15.3793 7.25994 15.4872 7.70028 15.4872C7.94744 15.4872 8.17614 15.4545 8.38636 15.3892C8.59943 15.3239 8.78835 15.2287 8.95312 15.1037C9.1179 14.9759 9.25426 14.821 9.36222 14.6392C9.47301 14.4574 9.54972 14.25 9.59233 14.017L11.4588 14.0256C11.4105 14.4261 11.2898 14.8125 11.0966 15.1847C10.9063 15.554 10.6491 15.8849 10.3253 16.1776C10.0043 16.4673 9.62074 16.6974 9.17472 16.8679C8.73153 17.0355 8.23011 17.1193 7.67045 17.1193C6.89205 17.1193 6.19602 16.9432 5.58239 16.5909C4.97159 16.2386 4.48864 15.7287 4.13352 15.0611C3.78125 14.3935 3.60511 13.5852 3.60511 12.6364C3.60511 11.6847 3.78409 10.875 4.14205 10.2074C4.5 9.53977 4.9858 9.03125 5.59943 8.68182C6.21307 8.32955 6.90341 8.15341 7.67045 8.15341C8.17614 8.15341 8.64489 8.22443 9.0767 8.36648C9.51136 8.50852 9.89631 8.71591 10.2315 8.98864C10.5668 9.25852 10.8395 9.58949 11.0497 9.98153C11.2628 10.3736 11.3991 10.8224 11.4588 11.3281ZM14.6143 17.1236C14.1967 17.1236 13.8246 17.0511 13.4979 16.9062C13.1712 16.7585 12.9126 16.5412 12.7223 16.2543C12.5348 15.9645 12.4411 15.6037 12.4411 15.1719C12.4411 14.8082 12.5078 14.5028 12.6413 14.2557C12.7749 14.0085 12.9567 13.8097 13.1868 13.6591C13.4169 13.5085 13.6783 13.3949 13.9709 13.3182C14.2663 13.2415 14.576 13.1875 14.8999 13.1562C15.2805 13.1165 15.5874 13.0795 15.8203 13.0455C16.0533 13.0085 16.2223 12.9545 16.3274 12.8835C16.4325 12.8125 16.4851 12.7074 16.4851 12.5682V12.5426C16.4851 12.2727 16.3999 12.0639 16.2294 11.9162C16.0618 11.7685 15.8232 11.6946 15.5135 11.6946C15.1868 11.6946 14.9268 11.767 14.7337 11.9119C14.5405 12.054 14.4126 12.233 14.3501 12.4489L12.6712 12.3125C12.7564 11.9148 12.924 11.571 13.174 11.2812C13.424 10.9886 13.7464 10.7642 14.1413 10.608C14.5391 10.4489 14.9993 10.3693 15.522 10.3693C15.8857 10.3693 16.2337 10.4119 16.5661 10.4972C16.9013 10.5824 17.1982 10.7145 17.4567 10.8935C17.718 11.0724 17.924 11.3026 18.0746 11.5838C18.2251 11.8622 18.3004 12.196 18.3004 12.5852V17H16.5788V16.0923H16.5277C16.4226 16.2969 16.282 16.4773 16.1058 16.6335C15.9297 16.7869 15.718 16.9077 15.4709 16.9957C15.2237 17.081 14.9382 17.1236 14.6143 17.1236ZM15.1342 15.8707C15.4013 15.8707 15.6371 15.8182 15.8416 15.7131C16.0462 15.6051 16.2067 15.4602 16.3232 15.2784C16.4396 15.0966 16.4979 14.8906 16.4979 14.6605V13.9659C16.4411 14.0028 16.3629 14.0369 16.2635 14.0682C16.1669 14.0966 16.0575 14.1236 15.9354 14.1491C15.8132 14.1719 15.6911 14.1932 15.5689 14.2131C15.4467 14.2301 15.3359 14.2457 15.2365 14.2599C15.0234 14.2912 14.8374 14.3409 14.6783 14.4091C14.5192 14.4773 14.3956 14.5696 14.3075 14.6861C14.2195 14.7997 14.1754 14.9418 14.1754 15.1122C14.1754 15.3594 14.2649 15.5483 14.4439 15.679C14.6257 15.8068 14.8558 15.8707 15.1342 15.8707ZM21.5241 8.27273V17H19.7088V8.27273H21.5241Z"
            fill="black" />
    </g>
</svg>