<svg stroke="currentColor" fill="currentColor" stroke-width="0" viewBox="0 0 24 24" xmlns="http://www.w3.org/2000/svg"
    data-darkreader-inline-fill="" data-darkreader-inline-stroke=""
    style="--darkreader-inline-fill:currentColor; --darkreader-inline-stroke:currentColor;">

    <g>
        <path fill="none" d="M0 0h24v24H0z"></path>
        <path
            d="M11.0795 11H10.0227C9.96023 10.696 9.85085 10.429 9.6946 10.1989C9.54119 9.96875 9.35369 9.77557 9.1321 9.61932C8.91335 9.46023 8.67045 9.34091 8.40341 9.26136C8.13636 9.18182 7.85795 9.14205 7.56818 9.14205C7.03977 9.14205 6.56108 9.27557 6.1321 9.54261C5.70597 9.80966 5.36648 10.2031 5.11364 10.723C4.86364 11.2429 4.73864 11.8807 4.73864 12.6364C4.73864 13.392 4.86364 14.0298 5.11364 14.5497C5.36648 15.0696 5.70597 15.4631 6.1321 15.7301C6.56108 15.9972 7.03977 16.1307 7.56818 16.1307C7.85795 16.1307 8.13636 16.0909 8.40341 16.0114C8.67045 15.9318 8.91335 15.8139 9.1321 15.6577C9.35369 15.4986 9.54119 15.304 9.6946 15.0739C9.85085 14.8409 9.96023 14.5739 10.0227 14.2727H11.0795C11 14.7187 10.8551 15.1179 10.6449 15.4702C10.4347 15.8224 10.1733 16.1222 9.8608 16.3693C9.5483 16.6136 9.19744 16.7997 8.80824 16.9276C8.42188 17.0554 8.00852 17.1193 7.56818 17.1193C6.82386 17.1193 6.16193 16.9375 5.58239 16.5739C5.00284 16.2102 4.54688 15.6932 4.21449 15.0227C3.8821 14.3523 3.71591 13.5568 3.71591 12.6364C3.71591 11.7159 3.8821 10.9205 4.21449 10.25C4.54688 9.57955 5.00284 9.0625 5.58239 8.69886C6.16193 8.33523 6.82386 8.15341 7.56818 8.15341C8.00852 8.15341 8.42188 8.21733 8.80824 8.34517C9.19744 8.47301 9.5483 8.66051 9.8608 8.90767C10.1733 9.15199 10.4347 9.45028 10.6449 9.80256C10.8551 10.152 11 10.5511 11.0795 11ZM14.5771 17.1534C14.1623 17.1534 13.7859 17.0753 13.4478 16.919C13.1097 16.7599 12.8413 16.5312 12.6424 16.233C12.4435 15.9318 12.3441 15.5682 12.3441 15.142C12.3441 14.767 12.418 14.4631 12.5657 14.2301C12.7134 13.9943 12.9109 13.8097 13.158 13.6761C13.4052 13.5426 13.6779 13.4432 13.9762 13.3778C14.2773 13.3097 14.5799 13.2557 14.8839 13.2159C15.2816 13.1648 15.604 13.1264 15.8512 13.1009C16.1012 13.0724 16.283 13.0256 16.3967 12.9602C16.5131 12.8949 16.5714 12.7812 16.5714 12.6193V12.5852C16.5714 12.1648 16.4563 11.8381 16.2262 11.6051C15.9989 11.3722 15.6538 11.2557 15.1907 11.2557C14.7106 11.2557 14.3342 11.3608 14.0614 11.571C13.7887 11.7812 13.5969 12.0057 13.4862 12.2443L12.5316 11.9034C12.7021 11.5057 12.9293 11.196 13.2134 10.9744C13.5004 10.75 13.8129 10.5937 14.1509 10.5057C14.4918 10.4148 14.8271 10.3693 15.1566 10.3693C15.3668 10.3693 15.6083 10.3949 15.881 10.446C16.1566 10.4943 16.4222 10.5952 16.6779 10.7486C16.9364 10.902 17.1509 11.1335 17.3214 11.4432C17.4918 11.7528 17.5771 12.1676 17.5771 12.6875V17H16.5714V16.1136H16.5202C16.4521 16.2557 16.3384 16.4077 16.1793 16.5696C16.0202 16.7315 15.8086 16.8693 15.5444 16.983C15.2802 17.0966 14.9577 17.1534 14.5771 17.1534ZM14.7305 16.25C15.1282 16.25 15.4634 16.1719 15.7362 16.0156C16.0117 15.8594 16.2191 15.6577 16.3583 15.4105C16.5004 15.1634 16.5714 14.9034 16.5714 14.6307V13.7102C16.5288 13.7614 16.435 13.8082 16.2901 13.8509C16.1481 13.8906 15.9833 13.9261 15.7958 13.9574C15.6112 13.9858 15.4308 14.0114 15.2546 14.0341C15.0813 14.054 14.9407 14.071 14.8327 14.0852C14.5714 14.1193 14.3271 14.1747 14.0998 14.2514C13.8754 14.3253 13.6935 14.4375 13.5543 14.5881C13.418 14.7358 13.3498 14.9375 13.3498 15.1932C13.3498 15.5426 13.479 15.8068 13.7376 15.9858C13.9989 16.1619 14.3299 16.25 14.7305 16.25ZM20.4183 8.27273V17H19.4126V8.27273H20.4183Z"
            fill="currentColor" stroke="currentColor" stroke-width="0" viewBox="0 0 24 24" class="w-6 h-6" />
    </g>
</svg>