<svg width="180" height="42" viewBox="0 0 180 42" fill="none" xmlns="http://www.w3.org/2000/svg">
<path d="M9.57489 20.8014C5.37455 20.8014 1.96875 17.2328 1.96875 12.8292C1.96875 8.4257 5.37455 4.85938 9.57489 4.85938C11.2428 4.85938 12.7835 5.42141 14.0356 6.37243C12.2769 8.14039 11.2183 10.4509 11.2183 12.8308C11.2183 14.8038 11.9771 17.285 14.0356 19.2892C12.7843 20.2402 11.2428 20.8022 9.57489 20.8022V20.8014Z" fill="#FD58C9"/>
<path d="M21.2678 20.4071C25.2623 20.4071 28.5005 17.014 28.5005 12.8285C28.5005 8.64303 25.2623 5.25 21.2678 5.25C17.2733 5.25 14.0352 8.64303 14.0352 12.8285C14.0352 17.014 17.2733 20.4071 21.2678 20.4071Z" fill="#FFD203"/>
<path d="M20.8943 21.9773C25.0946 21.9773 28.5005 25.546 28.5005 29.9495C28.5005 34.3531 25.0946 37.9194 20.8943 37.9194C19.2264 37.9194 17.6857 37.3574 16.4336 36.4063C18.1923 34.6384 19.2509 32.3279 19.2509 29.948C19.2509 27.975 18.4921 25.4938 16.4336 23.4896C17.6849 22.5386 19.2264 21.9766 20.8943 21.9766V21.9773Z" fill="#3C54FF"/>
<path d="M9.20142 37.5243C13.1959 37.5243 16.4341 34.1312 16.4341 29.9457C16.4341 25.7602 13.1959 22.3672 9.20142 22.3672C5.20693 22.3672 1.96875 25.7602 1.96875 29.9457C1.96875 34.1312 5.20693 37.5243 9.20142 37.5243Z" fill="#00B66C"/>
<path d="M37.0658 28.3895C40.9752 29.8075 45.8622 30.753 50.8995 30.753C53.4557 30.753 56.9143 30.4771 56.9143 29.4138C56.9143 28.3505 53.7942 28.1533 49.922 27.6809C43.832 26.9716 36.5391 25.987 36.5391 20.5514C36.5391 14.6036 43.832 13.4219 50.2225 13.4219C55.4101 13.4219 59.8834 14.1702 63.6806 15.037V21.0636C59.1693 20.0393 53.9817 19.3307 50.1846 19.3307C47.403 19.3307 45.1473 19.6854 45.1473 20.5912C45.1473 21.3395 46.8762 21.6942 51.087 22.1666C57.854 22.9149 65.5598 23.5845 65.5598 29.2961C65.5598 35.0077 59.0941 36.7016 50.1846 36.7016C44.7337 36.7016 38.9822 35.3226 37.1022 34.5743L37.0643 28.3903L37.0658 28.3895Z" fill="black"/>
<path d="M69.3937 14.8796C73.1157 14.1702 78.4907 13.4219 83.3026 13.4219C90.7837 13.4219 97.8884 15.352 97.8884 23.1121V36.2292H90.3701L89.9944 34.0629C86.3855 35.4419 82.2127 36.7024 78.0027 36.7024C72.2884 36.7024 67.2891 34.8908 67.2891 29.2579C67.2891 23.6251 73.2288 21.8922 79.469 21.8922C83.04 21.8922 86.6489 22.522 89.4684 23.5074C89.4684 20.0408 85.521 19.2137 80.9725 19.1748C76.3861 19.096 71.1985 20.0806 69.3944 20.5927V14.8811L69.3937 14.8796ZM89.4677 29.5721V28.1144C86.573 27.4845 82.7007 27.1688 80.4079 27.1688C77.4008 27.1688 76.2351 28.0356 76.2351 29.2564C76.2351 30.4771 77.5883 31.029 79.7688 31.029C82.6256 31.029 86.4978 30.3991 89.4677 29.5713V29.5721Z" fill="black"/>
<path d="M101.539 5.42969H109.96V36.2326H101.539V5.42969Z" fill="black"/>
<path d="M114.917 14.8796C118.639 14.1702 124.014 13.4219 128.826 13.4219C136.307 13.4219 143.412 15.352 143.412 23.1121V36.2292H135.894L135.518 34.0629C131.909 35.4419 127.736 36.7024 123.526 36.7024C117.812 36.7024 112.812 34.8908 112.812 29.2579C112.812 23.6251 118.752 21.8922 124.992 21.8922C128.563 21.8922 132.172 22.522 134.992 23.5074C134.992 20.0408 131.044 19.2137 126.496 19.1748C121.91 19.096 116.722 20.0806 114.918 20.5927V14.8811L114.917 14.8796ZM134.991 29.5721V28.1144C132.096 27.4845 128.224 27.1688 125.931 27.1688C122.924 27.1688 121.758 28.0356 121.758 29.2564C121.758 30.4771 123.112 31.029 125.292 31.029C128.149 31.029 132.021 30.3991 134.991 29.5713V29.5721Z" fill="black"/>
<path d="M169.877 16.262V5.42969H178.335V36.2326H171.192L170.853 33.042C168.673 35.287 165.102 36.705 159.651 36.705C150.93 36.705 145.93 31.5445 145.93 25.0846C145.93 18.1913 151.531 13.4253 159.726 13.4253C164.162 13.4253 167.583 14.4496 169.876 16.2612L169.877 16.262ZM154.577 25.0854C154.577 28.1185 157.246 30.5608 162.396 30.5608C167.545 30.5608 170.214 28.1185 170.214 25.0854C170.214 22.0523 167.583 19.571 162.396 19.571C157.208 19.571 154.577 22.0133 154.577 25.0854Z" fill="black"/>
</svg>
